<svg width="345" height="103" viewBox="0 0 345 103" fill="none" xmlns="http://www.w3.org/2000/svg">
<path d="M22.8548 79.8723C28.7927 73.5709 31.3533 69.8138 34.1989 62.5796C37.2856 63.7118 39.228 65.4215 40.148 68.5285C32.8721 71.0678 29.1955 73.9756 22.8548 79.8723Z" fill="#CF690F"/>
<path d="M80.2236 79.7493C73.922 73.8115 70.1648 71.251 62.9304 68.4054C64.0626 65.3188 65.7724 63.3765 68.8795 62.4566C71.4189 69.7322 74.3268 73.4087 80.2236 79.7493Z" fill="#CF690F"/>
<path d="M22.7517 23.226C29.0533 29.1638 32.8105 31.7243 40.0449 34.5698C38.9127 37.6564 37.203 39.5988 34.0959 40.5187C31.5564 33.243 28.6486 29.5666 22.7517 23.226Z" fill="#CF690F"/>
<path d="M80.2236 23.226C74.2857 29.5274 71.7251 33.2845 68.8795 40.5187C65.7928 39.3865 63.8504 37.6768 62.9304 34.5698C70.2063 32.0305 73.8829 29.1227 80.2236 23.226Z" fill="#CF690F"/>
<path d="M51.5097 102.904C51.4849 103.035 51.2943 103.031 51.2731 102.9C48.798 87.5248 45.7339 79.2126 37.951 65.0863C37.8953 64.9853 38.0029 64.8691 38.1072 64.9184C47.8307 69.5137 56.1758 69.0071 64.885 64.8072C64.9899 64.7566 65.0978 64.8745 65.0408 64.976C57.0608 79.1802 54.3126 88.1732 51.5097 102.904Z" fill="#FF8A24"/>
<path d="M0.0961707 51.628C-0.0344316 51.6032 -0.0309884 51.4125 0.100251 51.3913C15.3876 48.9282 23.9887 45.5511 38.0317 37.8325C38.1329 37.7769 38.2488 37.8845 38.1994 37.9888C33.6284 47.6333 33.9069 56.2443 38.074 64.8848C38.1246 64.9897 38.0067 65.0977 37.9051 65.0408C23.7884 57.1324 14.7369 54.406 0.0961707 51.628Z" fill="#FF8A24"/>
<path d="M51.2537 0.0961319C51.2785 -0.0344057 51.4691 -0.0309817 51.4903 0.100191C53.972 15.4785 57.2626 23.904 65.0491 38.0321C65.1048 38.1332 64.9973 38.2492 64.8929 38.1999C55.1694 33.5994 46.8244 33.8805 38.1152 38.0745C38.0103 38.1251 37.9023 38.007 37.9593 37.9055C45.9357 23.7032 48.4576 14.8234 51.2537 0.0961319Z" fill="#FF8A24"/>
<path d="M102.904 51.372C103.034 51.3968 103.031 51.5875 102.9 51.6086C87.6158 54.0651 79.1279 57.2157 65.0868 64.9307C64.9857 64.9863 64.8698 64.8786 64.9192 64.7743C69.4874 55.1378 69.0961 46.8651 64.9263 38.2336C64.8756 38.1288 64.9934 38.0207 65.095 38.0776C79.2117 45.9842 88.2632 48.5975 102.904 51.372Z" fill="#FF8A24"/>
<path d="M152.652 59.764H135.774L132.874 68H125.972L140.414 27.632H148.07L162.512 68H155.552L152.652 59.764ZM150.796 54.37L144.242 35.636L137.63 54.37H150.796ZM176.505 41.436V59.126C176.505 60.3247 176.776 61.1947 177.317 61.736C177.897 62.2387 178.864 62.49 180.217 62.49H184.277V68H179.057C176.08 68 173.799 67.304 172.213 65.912C170.628 64.52 169.835 62.258 169.835 59.126V41.436H166.065V36.042H169.835V28.096H176.505V36.042H184.277V41.436H176.505ZM196.983 25.08V68H190.371V25.08H196.983ZM203.46 51.876C203.46 48.6667 204.118 45.8247 205.432 43.35C206.786 40.8753 208.603 38.9613 210.884 37.608C213.204 36.216 215.756 35.52 218.54 35.52C221.054 35.52 223.238 36.0227 225.094 37.028C226.989 37.9947 228.497 39.2127 229.618 40.682V36.042H236.288V68H229.618V63.244C228.497 64.752 226.97 66.0087 225.036 67.014C223.103 68.0193 220.899 68.522 218.424 68.522C215.679 68.522 213.166 67.826 210.884 66.434C208.603 65.0033 206.786 63.0313 205.432 60.518C204.118 57.966 203.46 55.0853 203.46 51.876ZM229.618 51.992C229.618 49.788 229.154 47.874 228.226 46.25C227.337 44.626 226.158 43.3887 224.688 42.538C223.219 41.6873 221.634 41.262 219.932 41.262C218.231 41.262 216.646 41.6873 215.176 42.538C213.707 43.35 212.508 44.568 211.58 46.192C210.691 47.7773 210.246 49.672 210.246 51.876C210.246 54.08 210.691 56.0133 211.58 57.676C212.508 59.3387 213.707 60.6147 215.176 61.504C216.684 62.3547 218.27 62.78 219.932 62.78C221.634 62.78 223.219 62.3547 224.688 61.504C226.158 60.6533 227.337 59.416 228.226 57.792C229.154 56.1293 229.618 54.196 229.618 51.992ZM256.573 68.522C254.06 68.522 251.798 68.0773 249.787 67.188C247.815 66.26 246.249 65.0227 245.089 63.476C243.929 61.8907 243.31 60.1313 243.233 58.198H250.077C250.193 59.5513 250.831 60.692 251.991 61.62C253.19 62.5093 254.678 62.954 256.457 62.954C258.313 62.954 259.744 62.606 260.749 61.91C261.793 61.1753 262.315 60.2473 262.315 59.126C262.315 57.9273 261.735 57.038 260.575 56.458C259.454 55.878 257.656 55.24 255.181 54.544C252.784 53.8867 250.831 53.2487 249.323 52.63C247.815 52.0113 246.5 51.064 245.379 49.788C244.296 48.512 243.755 46.83 243.755 44.742C243.755 43.0407 244.258 41.494 245.263 40.102C246.268 38.6713 247.699 37.55 249.555 36.738C251.45 35.926 253.615 35.52 256.051 35.52C259.686 35.52 262.605 36.448 264.809 38.304C267.052 40.1213 268.25 42.6153 268.405 45.786H261.793C261.677 44.3553 261.097 43.2147 260.053 42.364C259.009 41.5133 257.598 41.088 255.819 41.088C254.079 41.088 252.745 41.4167 251.817 42.074C250.889 42.7313 250.425 43.6013 250.425 44.684C250.425 45.5347 250.734 46.25 251.353 46.83C251.972 47.41 252.726 47.874 253.615 48.222C254.504 48.5313 255.819 48.9373 257.559 49.44C259.879 50.0587 261.774 50.6967 263.243 51.354C264.751 51.9727 266.046 52.9007 267.129 54.138C268.212 55.3753 268.772 57.0187 268.811 59.068C268.811 60.8853 268.308 62.5093 267.303 63.94C266.298 65.3707 264.867 66.492 263.011 67.304C261.194 68.116 259.048 68.522 256.573 68.522Z" fill="#FF8A24"/>
</svg>
