<svg width="42" height="42" viewBox="0 0 42 42" fill="none" xmlns="http://www.w3.org/2000/svg">
<path d="M26.25 31.5H17.5" stroke="#FF8A24" stroke-width="4" stroke-linecap="round" stroke-linejoin="round"/>
<path d="M31.5 24.5H17.5" stroke="#FF8A24" stroke-width="4" stroke-linecap="round" stroke-linejoin="round"/>
<path d="M7 38.5H35C35.9283 38.5 36.8185 38.1313 37.4749 37.4749C38.1313 36.8185 38.5 35.9283 38.5 35V7C38.5 6.07174 38.1313 5.1815 37.4749 4.52513C36.8185 3.86875 35.9283 3.5 35 3.5H14C13.0717 3.5 12.1815 3.86875 11.5251 4.52513C10.8687 5.1815 10.5 6.07174 10.5 7V35C10.5 35.9283 10.1313 36.8185 9.47487 37.4749C8.8185 38.1313 7.92826 38.5 7 38.5ZM7 38.5C6.07174 38.5 5.1815 38.1313 4.52513 37.4749C3.86875 36.8185 3.5 35.9283 3.5 35V19.25C3.5 18.3217 3.86875 17.4315 4.52513 16.7751C5.1815 16.1187 6.07174 15.75 7 15.75H10.5" stroke="#FF8A24" stroke-width="4" stroke-linecap="round" stroke-linejoin="round"/>
<path d="M29.75 10.5H19.25C18.2835 10.5 17.5 11.2835 17.5 12.25V15.75C17.5 16.7165 18.2835 17.5 19.25 17.5H29.75C30.7165 17.5 31.5 16.7165 31.5 15.75V12.25C31.5 11.2835 30.7165 10.5 29.75 10.5Z" stroke="#FF8A24" stroke-width="4" stroke-linecap="round" stroke-linejoin="round"/>
</svg>
